<svg xmlns="http://www.w3.org/2000/svg" width="27" height="27" fill="none"><path fill="#3A68B8" d="m26.694 22.692-9.225-9.255L26.715 4.3a.975.975 0 0 0 0-1.378L24.085.281A.968.968 0 0 0 23.396 0a.998.998 0 0 0-.689.281L13.503 9.39 4.287.289a.968.968 0 0 0-.69-.282.998.998 0 0 0-.689.281L.285 2.931a.975.975 0 0 0 0 1.377l9.246 9.136-9.218 9.248a.973.973 0 0 0-.288.689c0 .26.098.506.288.689l2.63 2.642a.97.97 0 0 0 1.378 0l9.183-9.22 9.19 9.213a.97.97 0 0 0 1.378 0l2.63-2.642a.973.973 0 0 0 .287-.69 1.008 1.008 0 0 0-.295-.68Z"/></svg>