<svg xmlns="http://www.w3.org/2000/svg" width="182" height="255" fill="none"><g filter="url(#a)"><path fill="#C5CCD3" d="M36.615 124.682a5 5 0 0 1 5-5H75.13a5 5 0 0 1 5 5v1.368H36.616v-1.368Z"/></g><g filter="url(#b)"><path fill="#9EA7AF" d="M49.882 113.314h18.043v6.368H49.882z"/></g><g filter="url(#c)"><rect width="81.191" height="60.495" x="18.043" y="52.818" fill="#C5CCD3" rx="7"/></g><rect width="61.557" height="28.656" x="28.125" y="68.738" fill="#135693" rx="14.328"/><circle cx="40.065" cy="83.331" r="5.572" fill="#6BC1DD"/><circle cx="76.68" cy="83.331" r="5.572" fill="#6BC1DD"/><path fill="#9EA7AF" d="M10.082 70.962a7 7 0 0 1 7-7h.96v37.677h-.96a7 7 0 0 1-7-7V70.962ZM99.233 63.962h.96a7 7 0 0 1 7 7V94.64a7 7 0 0 1-7 7h-.96V63.962Z"/><path fill="#135693" d="M56.25 43.797h4.245v9.021H56.25z"/><g filter="url(#d)"><circle cx="58.638" cy="37.164" r="7.164" fill="#FFC502"/></g><g filter="url(#e)"><rect width="75.354" height="64.21" x="21.226" y="126.05" fill="#9EA7AF" rx="7"/></g><rect width="48.821" height="32.901" x="34.493" y="140.908" fill="#135693" rx="5"/><rect width="10.613" height="4.245" x="39.269" y="144.092" fill="#C5CCD3" rx="2.123"/><rect width="38.738" height="3.184" x="39.269" y="166.91" fill="#5DC647" rx="1.592"/><rect width="9.552" height="4.245" x="68.455" y="156.297" fill="#E6E9ED" rx="2.123"/><rect width="7.96" height="4.245" x="39.269" y="149.399" fill="#C5CCD3" rx="2.123"/><rect width="10.613" height="4.245" x="39.269" y="154.705" fill="#C5CCD3" rx="2.123"/><rect width="6.899" height="4.245" x="39.269" y="160.012" fill="#C5CCD3" rx="2.123"/><rect width="10.082" height="6.368" x="54.127" y="144.092" fill="#6BC1DD" rx="2"/><circle cx="73.496" cy="148.603" r="4.511" fill="#5DC647"/><rect width="9.552" height="9.552" x="54.127" y="154.705" fill="#FFC502" rx="2"/><g filter="url(#f)"><path fill="#135693" d="M34.368 190h14.328v31.84H34.368V190Z"/></g><g filter="url(#g)"><path fill="#135693" d="M69.391 190h14.328v31.84H69.391z"/></g><g filter="url(#h)"><path fill="#C5CCD3" fill-rule="evenodd" d="M36.184 221.84a5 5 0 0 0-5 5v8.008c0 5.523 4.477 10 10 10h.696c5.523 0 10-4.477 10-10v-8.008a5 5 0 0 0-5-5H36.184Z" clip-rule="evenodd"/></g><g filter="url(#i)"><path fill="#C5CCD3" fill-rule="evenodd" d="M71.207 221.84a5 5 0 0 0-5 5v8.008c0 4.056 2.415 7.547 5.884 9.117a14.345 14.345 0 0 1 4.464-.709c1.554 0 3.053.248 4.465.709a10.003 10.003 0 0 0 5.883-9.117v-8.008a5 5 0 0 0-5-5H71.207Z" clip-rule="evenodd"/></g><g filter="url(#j)"><path fill="#6ABDDB" fill-rule="evenodd" d="M55.061 254.741c.002-.089.003-.177.003-.266 0-7.473-6.059-13.532-13.532-13.532-7.474 0-13.532 6.059-13.532 13.532 0 .089 0 .177.003.266H55.06Z" clip-rule="evenodd"/></g><g filter="url(#k)"><path fill="#6ABDDB" fill-rule="evenodd" d="m90.085 254.741.002-.266c0-7.473-6.058-13.532-13.532-13.532-7.473 0-13.531 6.059-13.531 13.532 0 .089 0 .177.002.266h27.059Z" clip-rule="evenodd"/></g><g filter="url(#l)"><path fill="#9EA7AF" d="M10.082 181.238h7.429v11.144h-7.429z"/></g><g filter="url(#m)"><path fill="#9EA7AF" d="m130.521 109.133-6.157-4.158 6.237-9.235 6.157 4.158z"/></g><g filter="url(#n)"><path fill="#E8EEF3" d="M9.021 149.398h9.552v29.187a4.776 4.776 0 1 1-9.552 0v-29.187Z"/></g><g filter="url(#o)"><path fill="#E8EEF3" d="m111.108 139.774-7.916-5.346L122 106.58a4.775 4.775 0 1 1 7.915 5.346l-18.807 27.848Z"/></g><path fill="#E6E9ED" d="M96.58 131.295h6.368c5.862 0 10.613 4.751 10.613 10.613 0 5.861-4.751 10.613-10.613 10.613H96.58v-21.226Z"/><g filter="url(#p)"><path fill="#E6E9ED" d="M21.226 152.521H14.86c-5.862 0-10.614-4.752-10.614-10.613 0-5.862 4.752-10.613 10.613-10.613h6.368v21.226Z"/></g><path fill="#E8EEF3" fill-rule="evenodd" d="m28.105 204.842-.003.276h-7.406a6.368 6.368 0 1 0-12.736 0H.003a14.412 14.412 0 0 1-.003-.276c0-7.761 6.291-14.052 14.052-14.052 7.761 0 14.053 6.291 14.053 14.052Z" clip-rule="evenodd"/><g filter="url(#q)"><path fill="#FF8A00" fill-rule="evenodd" d="M122.264 106.557c0-8.285 6.716-15 15-15h20.784c8.285 0 15 6.715 15 15v3.98h-6.158c.002-.086.003-.171.003-.257 0-6.941-5.627-12.568-12.568-12.568h-13.337c-6.941 0-12.568 5.627-12.568 12.568l.002.257h-6.158v-3.98Z" clip-rule="evenodd"/></g><g filter="url(#r)"><path fill="#FFC502" d="m115.076 122.256 3.941 22.577a9.999 9.999 0 0 0 9.851 8.28h36.464a10 10 0 0 0 9.82-8.114l4.335-22.577c1.184-6.166-3.542-11.885-9.821-11.885h-44.739c-6.21 0-10.919 5.601-9.851 11.719Z"/></g><rect width="23.597" height="5.13" x="115.595" y="116.179" fill="#FF3D00" fill-opacity=".29" rx="2.565"/><rect width="10.259" height="5.13" x="118.673" y="128.491" fill="#FF3D00" fill-opacity=".29" rx="2.565"/><rect width="10.259" height="5.13" x="119.699" y="140.802" fill="#FF3D00" fill-opacity=".29" rx="2.565"/><rect width="10.259" height="5.13" x="130.985" y="140.802" fill="#FF3D00" fill-opacity=".29" rx="2.565"/><rect width="10.259" height="5.13" x="142.27" y="116.179" fill="#FF3D00" fill-opacity=".29" rx="2.565"/><rect width="22.058" height="5.13" x="130.472" y="128.491" fill="#FF3D00" fill-opacity=".29" rx="2.565"/><rect width="10.259" height="5.13" x="142.27" y="140.802" fill="#FF3D00" fill-opacity=".29" rx="2.565"/><rect width="10.259" height="5.13" x="154.068" y="128.491" fill="#FF3D00" fill-opacity=".29" rx="2.565"/><rect width="23.597" height="5.13" x="155.607" y="116.179" fill="#FF3D00" fill-opacity=".29" rx="2.565"/><rect width="10.259" height="5.13" x="165.867" y="128.491" fill="#FF3D00" fill-opacity=".29" rx="2.565"/><rect width="21.545" height="5.13" x="153.555" y="140.802" fill="#FF3D00" fill-opacity=".29" rx="2.565"/><rect width="9.552" height="16.451" x="131.604" y="85.981" fill="#E8EEF3" rx="4.776" transform="rotate(-11.193 131.604 85.981)"/><defs><filter id="a" width="43.514" height="6.368" x="36.615" y="119.682" color-interpolation-filters="sRGB" filterUnits="userSpaceOnUse"><feFlood flood-opacity="0" result="BackgroundImageFix"/><feBlend in="SourceGraphic" in2="BackgroundImageFix" result="shape"/><feColorMatrix in="SourceAlpha" result="hardAlpha" values="0 0 0 0 0 0 0 0 0 0 0 0 0 0 0 0 0 0 127 0"/><feOffset dx="15"/><feComposite in2="hardAlpha" k2="-1" k3="1" operator="arithmetic"/><feColorMatrix values="0 0 0 0 0.698039 0 0 0 0 0.678431 0 0 0 0 0.772549 0 0 0 1 0"/><feBlend in2="shape" result="effect1_innerShadow_1_299"/></filter><filter id="b" width="18.043" height="6.368" x="49.882" y="113.314" color-interpolation-filters="sRGB" filterUnits="userSpaceOnUse"><feFlood flood-opacity="0" result="BackgroundImageFix"/><feBlend in="SourceGraphic" in2="BackgroundImageFix" result="shape"/><feColorMatrix in="SourceAlpha" result="hardAlpha" values="0 0 0 0 0 0 0 0 0 0 0 0 0 0 0 0 0 0 127 0"/><feOffset dx="12"/><feComposite in2="hardAlpha" k2="-1" k3="1" operator="arithmetic"/><feColorMatrix values="0 0 0 0 0.564706 0 0 0 0 0.556863 0 0 0 0 0.65098 0 0 0 1 0"/><feBlend in2="shape" result="effect1_innerShadow_1_299"/></filter><filter id="c" width="81.191" height="60.495" x="18.043" y="52.818" color-interpolation-filters="sRGB" filterUnits="userSpaceOnUse"><feFlood flood-opacity="0" result="BackgroundImageFix"/><feBlend in="SourceGraphic" in2="BackgroundImageFix" result="shape"/><feColorMatrix in="SourceAlpha" result="hardAlpha" values="0 0 0 0 0 0 0 0 0 0 0 0 0 0 0 0 0 0 127 0"/><feOffset dx="15"/><feComposite in2="hardAlpha" k2="-1" k3="1" operator="arithmetic"/><feColorMatrix values="0 0 0 0 0.760784 0 0 0 0 0.780392 0 0 0 0 0.819608 0 0 0 1 0"/><feBlend in2="shape" result="effect1_innerShadow_1_299"/></filter><filter id="d" width="74.328" height="74.328" x="21.474" y="0" color-interpolation-filters="sRGB" filterUnits="userSpaceOnUse"><feFlood flood-opacity="0" result="BackgroundImageFix"/><feColorMatrix in="SourceAlpha" result="hardAlpha" values="0 0 0 0 0 0 0 0 0 0 0 0 0 0 0 0 0 0 127 0"/><feMorphology in="SourceAlpha" operator="dilate" radius="10" result="effect1_dropShadow_1_299"/><feOffset/><feGaussianBlur stdDeviation="10"/><feComposite in2="hardAlpha" operator="out"/><feColorMatrix values="0 0 0 0 1 0 0 0 0 0.852899 0 0 0 0 0.358334 0 0 0 0.54 0"/><feBlend in2="BackgroundImageFix" result="effect1_dropShadow_1_299"/><feBlend in="SourceGraphic" in2="effect1_dropShadow_1_299" result="shape"/></filter><filter id="e" width="75.354" height="64.21" x="21.226" y="126.05" color-interpolation-filters="sRGB" filterUnits="userSpaceOnUse"><feFlood flood-opacity="0" result="BackgroundImageFix"/><feBlend in="SourceGraphic" in2="BackgroundImageFix" result="shape"/><feColorMatrix in="SourceAlpha" result="hardAlpha" values="0 0 0 0 0 0 0 0 0 0 0 0 0 0 0 0 0 0 127 0"/><feOffset dx="15"/><feComposite in2="hardAlpha" k2="-1" k3="1" operator="arithmetic"/><feColorMatrix values="0 0 0 0 0.611765 0 0 0 0 0.639216 0 0 0 0 0.682353 0 0 0 1 0"/><feBlend in2="shape" result="effect1_innerShadow_1_299"/></filter><filter id="f" width="14.328" height="31.84" x="34.368" y="190" color-interpolation-filters="sRGB" filterUnits="userSpaceOnUse"><feFlood flood-opacity="0" result="BackgroundImageFix"/><feBlend in="SourceGraphic" in2="BackgroundImageFix" result="shape"/><feColorMatrix in="SourceAlpha" result="hardAlpha" values="0 0 0 0 0 0 0 0 0 0 0 0 0 0 0 0 0 0 127 0"/><feOffset dx="10"/><feComposite in2="hardAlpha" k2="-1" k3="1" operator="arithmetic"/><feColorMatrix values="0 0 0 0 0.0680555 0 0 0 0 0.276704 0 0 0 0 0.466667 0 0 0 1 0"/><feBlend in2="shape" result="effect1_innerShadow_1_299"/></filter><filter id="g" width="14.328" height="31.84" x="69.391" y="190" color-interpolation-filters="sRGB" filterUnits="userSpaceOnUse"><feFlood flood-opacity="0" result="BackgroundImageFix"/><feBlend in="SourceGraphic" in2="BackgroundImageFix" result="shape"/><feColorMatrix in="SourceAlpha" result="hardAlpha" values="0 0 0 0 0 0 0 0 0 0 0 0 0 0 0 0 0 0 127 0"/><feOffset dx="10"/><feComposite in2="hardAlpha" k2="-1" k3="1" operator="arithmetic"/><feColorMatrix values="0 0 0 0 0.0680555 0 0 0 0 0.276704 0 0 0 0 0.466667 0 0 0 1 0"/><feBlend in2="shape" result="effect1_innerShadow_1_299"/></filter><filter id="h" width="20.696" height="23.009" x="31.184" y="221.84" color-interpolation-filters="sRGB" filterUnits="userSpaceOnUse"><feFlood flood-opacity="0" result="BackgroundImageFix"/><feBlend in="SourceGraphic" in2="BackgroundImageFix" result="shape"/><feColorMatrix in="SourceAlpha" result="hardAlpha" values="0 0 0 0 0 0 0 0 0 0 0 0 0 0 0 0 0 0 127 0"/><feOffset dx="10"/><feComposite in2="hardAlpha" k2="-1" k3="1" operator="arithmetic"/><feColorMatrix values="0 0 0 0 0.698039 0 0 0 0 0.678431 0 0 0 0 0.772549 0 0 0 1 0"/><feBlend in2="shape" result="effect1_innerShadow_1_299"/></filter><filter id="i" width="20.696" height="22.125" x="66.207" y="221.84" color-interpolation-filters="sRGB" filterUnits="userSpaceOnUse"><feFlood flood-opacity="0" result="BackgroundImageFix"/><feBlend in="SourceGraphic" in2="BackgroundImageFix" result="shape"/><feColorMatrix in="SourceAlpha" result="hardAlpha" values="0 0 0 0 0 0 0 0 0 0 0 0 0 0 0 0 0 0 127 0"/><feOffset dx="10"/><feComposite in2="hardAlpha" k2="-1" k3="1" operator="arithmetic"/><feColorMatrix values="0 0 0 0 0.698039 0 0 0 0 0.678431 0 0 0 0 0.772549 0 0 0 1 0"/><feBlend in2="shape" result="effect1_innerShadow_1_299"/></filter><filter id="j" width="27.064" height="13.797" x="28" y="240.943" color-interpolation-filters="sRGB" filterUnits="userSpaceOnUse"><feFlood flood-opacity="0" result="BackgroundImageFix"/><feBlend in="SourceGraphic" in2="BackgroundImageFix" result="shape"/><feColorMatrix in="SourceAlpha" result="hardAlpha" values="0 0 0 0 0 0 0 0 0 0 0 0 0 0 0 0 0 0 127 0"/><feOffset dx="10"/><feComposite in2="hardAlpha" k2="-1" k3="1" operator="arithmetic"/><feColorMatrix values="0 0 0 0 0.281458 0 0 0 0 0.555063 0 0 0 0 0.804167 0 0 0 1 0"/><feBlend in2="shape" result="effect1_innerShadow_1_299"/></filter><filter id="k" width="27.064" height="13.797" x="63.024" y="240.943" color-interpolation-filters="sRGB" filterUnits="userSpaceOnUse"><feFlood flood-opacity="0" result="BackgroundImageFix"/><feBlend in="SourceGraphic" in2="BackgroundImageFix" result="shape"/><feColorMatrix in="SourceAlpha" result="hardAlpha" values="0 0 0 0 0 0 0 0 0 0 0 0 0 0 0 0 0 0 127 0"/><feOffset dx="10"/><feComposite in2="hardAlpha" k2="-1" k3="1" operator="arithmetic"/><feColorMatrix values="0 0 0 0 0.281458 0 0 0 0 0.555063 0 0 0 0 0.804167 0 0 0 1 0"/><feBlend in2="shape" result="effect1_innerShadow_1_299"/></filter><filter id="l" width="7.429" height="11.144" x="10.082" y="181.238" color-interpolation-filters="sRGB" filterUnits="userSpaceOnUse"><feFlood flood-opacity="0" result="BackgroundImageFix"/><feBlend in="SourceGraphic" in2="BackgroundImageFix" result="shape"/><feColorMatrix in="SourceAlpha" result="hardAlpha" values="0 0 0 0 0 0 0 0 0 0 0 0 0 0 0 0 0 0 127 0"/><feOffset dx="5"/><feComposite in2="hardAlpha" k2="-1" k3="1" operator="arithmetic"/><feColorMatrix values="0 0 0 0 0.571493 0 0 0 0 0.602026 0 0 0 0 0.629167 0 0 0 1 0"/><feBlend in2="shape" result="effect1_innerShadow_1_299"/></filter><filter id="m" width="12.394" height="13.393" x="124.364" y="95.74" color-interpolation-filters="sRGB" filterUnits="userSpaceOnUse"><feFlood flood-opacity="0" result="BackgroundImageFix"/><feBlend in="SourceGraphic" in2="BackgroundImageFix" result="shape"/><feColorMatrix in="SourceAlpha" result="hardAlpha" values="0 0 0 0 0 0 0 0 0 0 0 0 0 0 0 0 0 0 127 0"/><feOffset dx="5"/><feComposite in2="hardAlpha" k2="-1" k3="1" operator="arithmetic"/><feColorMatrix values="0 0 0 0 0.571493 0 0 0 0 0.602026 0 0 0 0 0.629167 0 0 0 1 0"/><feBlend in2="shape" result="effect1_innerShadow_1_299"/></filter><filter id="n" width="9.552" height="33.962" x="9.021" y="149.398" color-interpolation-filters="sRGB" filterUnits="userSpaceOnUse"><feFlood flood-opacity="0" result="BackgroundImageFix"/><feBlend in="SourceGraphic" in2="BackgroundImageFix" result="shape"/><feColorMatrix in="SourceAlpha" result="hardAlpha" values="0 0 0 0 0 0 0 0 0 0 0 0 0 0 0 0 0 0 127 0"/><feOffset dx="5"/><feComposite in2="hardAlpha" k2="-1" k3="1" operator="arithmetic"/><feColorMatrix values="0 0 0 0 0.698039 0 0 0 0 0.678431 0 0 0 0 0.772549 0 0 0 1 0"/><feBlend in2="shape" result="effect1_innerShadow_1_299"/></filter><filter id="o" width="27.542" height="35.298" x="103.192" y="104.476" color-interpolation-filters="sRGB" filterUnits="userSpaceOnUse"><feFlood flood-opacity="0" result="BackgroundImageFix"/><feBlend in="SourceGraphic" in2="BackgroundImageFix" result="shape"/><feColorMatrix in="SourceAlpha" result="hardAlpha" values="0 0 0 0 0 0 0 0 0 0 0 0 0 0 0 0 0 0 127 0"/><feOffset dx="5"/><feComposite in2="hardAlpha" k2="-1" k3="1" operator="arithmetic"/><feColorMatrix values="0 0 0 0 0.698039 0 0 0 0 0.678431 0 0 0 0 0.772549 0 0 0 1 0"/><feBlend in2="shape" result="effect1_innerShadow_1_299"/></filter><filter id="p" width="16.981" height="21.226" x="4.245" y="131.295" color-interpolation-filters="sRGB" filterUnits="userSpaceOnUse"><feFlood flood-opacity="0" result="BackgroundImageFix"/><feBlend in="SourceGraphic" in2="BackgroundImageFix" result="shape"/><feColorMatrix in="SourceAlpha" result="hardAlpha" values="0 0 0 0 0 0 0 0 0 0 0 0 0 0 0 0 0 0 127 0"/><feOffset dx="12"/><feComposite in2="hardAlpha" k2="-1" k3="1" operator="arithmetic"/><feColorMatrix values="0 0 0 0 0.886275 0 0 0 0 0.894118 0 0 0 0 0.917647 0 0 0 1 0"/><feBlend in2="shape" result="effect1_innerShadow_1_299"/></filter><filter id="q" width="50.784" height="18.98" x="122.264" y="91.557" color-interpolation-filters="sRGB" filterUnits="userSpaceOnUse"><feFlood flood-opacity="0" result="BackgroundImageFix"/><feBlend in="SourceGraphic" in2="BackgroundImageFix" result="shape"/><feColorMatrix in="SourceAlpha" result="hardAlpha" values="0 0 0 0 0 0 0 0 0 0 0 0 0 0 0 0 0 0 127 0"/><feOffset dx="5"/><feComposite in2="hardAlpha" k2="-1" k3="1" operator="arithmetic"/><feColorMatrix values="0 0 0 0 0.762153 0 0 0 0 0.357704 0 0 0 0 0.130201 0 0 0 1 0"/><feBlend in2="shape" result="effect1_innerShadow_1_299"/></filter><filter id="r" width="64.745" height="42.577" x="114.924" y="110.537" color-interpolation-filters="sRGB" filterUnits="userSpaceOnUse"><feFlood flood-opacity="0" result="BackgroundImageFix"/><feBlend in="SourceGraphic" in2="BackgroundImageFix" result="shape"/><feColorMatrix in="SourceAlpha" result="hardAlpha" values="0 0 0 0 0 0 0 0 0 0 0 0 0 0 0 0 0 0 127 0"/><feOffset dx="15"/><feComposite in2="hardAlpha" k2="-1" k3="1" operator="arithmetic"/><feColorMatrix values="0 0 0 0 1 0 0 0 0 0.48 0 0 0 0 5.36442e-07 0 0 0 0.71 0"/><feBlend in2="shape" result="effect1_innerShadow_1_299"/></filter></defs></svg>