<svg xmlns="http://www.w3.org/2000/svg" width="205" height="252" fill="none"><g filter="url(#a)"><path fill="#C5CCD3" d="M82.533 121.682a5 5 0 0 1 5-5h33.514a5 5 0 0 1 5 5v1.368H82.533v-1.368Z"/></g><g filter="url(#b)"><path fill="#9EA7AF" d="M95.8 110.314h18.043v6.368H95.8z"/></g><g filter="url(#c)"><rect width="81.191" height="60.495" x="63.96" y="49.818" fill="#C5CCD3" rx="7"/></g><rect width="61.557" height="28.656" x="74.043" y="65.738" fill="#135693" rx="14.328"/><circle cx="85.982" cy="80.331" r="5.572" fill="#6BC1DD"/><circle cx="122.598" cy="80.331" r="5.572" fill="#6BC1DD"/><path fill="#9EA7AF" d="M56 67.962a7 7 0 0 1 7-7h.96V98.64H63a7 7 0 0 1-7-7V67.962ZM145.151 60.962h.96a7 7 0 0 1 7 7V91.64a7 7 0 0 1-7 7h-.96V60.962Z"/><path fill="#135693" d="M102.167 40.797h4.245v9.021h-4.245z"/><g filter="url(#d)"><circle cx="104.555" cy="34.164" r="7.164" fill="#49E528"/></g><g filter="url(#e)"><rect width="75.354" height="64.21" x="67" y="123" fill="#9EA7AF" rx="7"/></g><rect width="48.821" height="32.901" x="80.266" y="137.858" fill="#135693" rx="5"/><rect width="10.613" height="4.245" x="85.043" y="141.042" fill="#C5CCD3" rx="2.123"/><rect width="38.738" height="3.184" x="85.043" y="163.861" fill="#5DC647" rx="1.592"/><rect width="9.552" height="4.245" x="114.229" y="153.248" fill="#E6E9ED" rx="2.123"/><rect width="7.96" height="4.245" x="85.043" y="146.349" fill="#C5CCD3" rx="2.123"/><rect width="10.613" height="4.245" x="85.043" y="151.656" fill="#C5CCD3" rx="2.123"/><rect width="6.899" height="4.245" x="85.043" y="156.962" fill="#C5CCD3" rx="2.123"/><rect width="10.082" height="6.368" x="99.901" y="141.042" fill="#6BC1DD" rx="2"/><circle cx="119.27" cy="145.553" r="4.511" fill="#5DC647"/><rect width="9.552" height="9.552" x="99.901" y="151.656" fill="#FFC502" rx="2"/><g filter="url(#f)"><path fill="#135693" d="M80.368 187h14.328v31.84H80.368V187Z"/></g><g filter="url(#g)"><path fill="#135693" d="M115.391 187h14.328v31.84h-14.328z"/></g><g filter="url(#h)"><path fill="#C5CCD3" fill-rule="evenodd" d="M82.184 218.84a5 5 0 0 0-5 5v8.008c0 5.523 4.477 10 10 10h.696c5.523 0 10-4.477 10-10v-8.008a5 5 0 0 0-5-5H82.184Z" clip-rule="evenodd"/></g><g filter="url(#i)"><path fill="#C5CCD3" fill-rule="evenodd" d="M117.208 218.84a5 5 0 0 0-5 5v8.008c0 4.056 2.414 7.547 5.883 9.117a14.343 14.343 0 0 1 4.464-.709c1.554 0 3.054.248 4.465.709a10.004 10.004 0 0 0 5.883-9.117v-8.008a5 5 0 0 0-5-5h-10.695Z" clip-rule="evenodd"/></g><g filter="url(#j)"><path fill="#6ABDDB" fill-rule="evenodd" d="M101.061 251.741c.002-.089.003-.177.003-.266 0-7.473-6.059-13.532-13.532-13.532-7.474 0-13.532 6.059-13.532 13.532 0 .089 0 .177.002.266h27.059Z" clip-rule="evenodd"/></g><g filter="url(#k)"><path fill="#6ABDDB" fill-rule="evenodd" d="m136.085 251.741.002-.266c0-7.473-6.058-13.532-13.532-13.532-7.473 0-13.531 6.059-13.531 13.532 0 .089 0 .177.002.266h27.059Z" clip-rule="evenodd"/></g><g filter="url(#l)"><path fill="#9EA7AF" d="m39.205 104.92-5.69 4.776-7.164-8.537 5.69-4.775z"/></g><g filter="url(#m)"><path fill="#9EA7AF" d="m171.691 112.312-5.69-4.775L173.162 99l5.691 4.775z"/></g><g filter="url(#n)"><path fill="#E8EEF3" d="m60.719 128.429-7.318 6.14-18.76-22.358a4.776 4.776 0 1 1 7.317-6.14l18.76 22.358Z"/></g><g filter="url(#o)"><path fill="#E8EEF3" d="m152.595 136.821-7.317-6.14 18.76-22.358a4.775 4.775 0 1 1 7.317 6.14l-18.76 22.358Z"/></g><g filter="url(#p)"><path fill="#E6E9ED" d="M66.981 149.226h-6.368c-5.861 0-10.613-4.751-10.613-10.613C50 132.752 54.752 128 60.613 128h6.368v21.226Z"/></g><g filter="url(#q)"><path fill="#E6E9ED" d="M142 128h6.368c5.861 0 10.613 4.752 10.613 10.613 0 5.862-4.752 10.613-10.613 10.613H142V128Z"/></g><path fill="#E8EEF3" fill-rule="evenodd" d="M10.102 98.534c-.059-.07-.117-.141-.175-.213l5.674-4.76a6.368 6.368 0 0 0 9.756-8.187l6.095-5.114.18.209c4.988 5.945 4.213 14.809-1.733 19.797-5.945 4.989-14.808 4.213-19.797-1.732ZM174.033 82.211c.059-.07.118-.14.179-.21l5.673 4.761a6.369 6.369 0 0 0 9.756 8.187l6.096 5.115-.175.212c-4.989 5.946-13.852 6.721-19.797 1.732-5.946-4.988-6.721-13.852-1.732-19.797Z" clip-rule="evenodd"/><path fill="#6BC1DD" d="M8.008 77c2.043-.007 5.352-1.441 3.395-5.713a.842.842 0 0 0-.425-.415c-.718-.318-1.533.443-1.558 1.228-.014.464-.128.885-.41 1.15-.943.889-1.614.956-2.803.745-.625-.111-1.207.351-1.207.986v.575c0 .418.258.792.655.922.75.246 1.755.524 2.353.522ZM196.63 77c-2.043-.007-5.352-1.441-3.395-5.713a.843.843 0 0 1 .425-.415c.718-.318 1.533.443 1.558 1.228.015.464.128.885.41 1.15.943.889 1.614.956 2.803.745.625-.111 1.207.351 1.207.986v.575a.962.962 0 0 1-.655.922c-.75.246-1.755.524-2.353.522ZM25.388 43.211c-1.773 1.015-3.943 3.896-.132 6.645.165.119.372.17.575.15.78-.078 1.114-1.142.748-1.836-.216-.412-.325-.834-.211-1.203.381-1.239.931-1.628 2.07-2.032.598-.212.876-.901.562-1.453l-.284-.5a.962.962 0 0 0-1.024-.479c-.774.157-1.786.411-2.304.708ZM179.25 43.211c1.773 1.015 3.943 3.896.132 6.645a.843.843 0 0 1-.575.15c-.781-.078-1.114-1.142-.748-1.836.217-.412.325-.834.211-1.203-.381-1.239-.931-1.628-2.07-2.032-.598-.212-.876-.901-.562-1.453l.284-.5a.963.963 0 0 1 1.025-.479c.773.157 1.785.411 2.303.708ZM7.095 55.252c-2.04.105-5.277 1.697-3.117 5.87.094.18.255.32.445.393.732.284 1.51-.515 1.497-1.3-.008-.465.086-.89.354-1.169.9-.933 1.567-1.032 2.765-.879.63.081 1.188-.409 1.158-1.042l-.028-.575a.962.962 0 0 0-.698-.89c-.762-.209-1.779-.439-2.376-.408ZM197.543 55.252c2.04.105 5.277 1.697 3.117 5.87a.844.844 0 0 1-.445.393c-.732.284-1.51-.515-1.497-1.3.008-.465-.086-.89-.354-1.169-.9-.933-1.566-1.032-2.765-.879-.629.081-1.188-.409-1.158-1.042l.028-.575a.962.962 0 0 1 .698-.89c.762-.209 1.779-.439 2.376-.408Z"/><path fill="#FFC502" d="m17.526 64.342-1.878-.626a.953.953 0 0 0-1.07.32C13.705 65.2 12.5 67.139 12.5 68.5c0 1.57 2.244 4.228 3.431 5.43a.959.959 0 0 0 .151.125l.967.644a1 1 0 0 0 .949.088L19.83 74c.596-.255.798-1.002.443-1.544C19.254 70.9 18 68.584 18 67v-2a.694.694 0 0 0-.474-.658ZM7.5 84.5c.086-.172.173-.362.26-.56.305-.703-.494-1.44-1.26-1.44-.517 0-1.665-.05-1.961.373L2 86.5.643 88.763c-.094.155-.103.34.076.37.89.147 4.244-.479 5.281-.133.696.232 1.4-.342 1.347-1.073-.097-1.338-.123-2.875.153-3.427ZM187.112 64.342l1.879-.626a.953.953 0 0 1 1.069.32c.873 1.165 2.078 3.103 2.078 4.464 0 1.57-2.244 4.228-3.431 5.43a.98.98 0 0 1-.151.125l-.967.644a1 1 0 0 1-.949.088L184.808 74c-.596-.255-.798-1.002-.443-1.544 1.019-1.557 2.273-3.873 2.273-5.457v-2c0-.299.191-.564.474-.658ZM197.138 84.5a11.624 11.624 0 0 1-.259-.56c-.306-.703.493-1.44 1.259-1.44.517 0 1.665-.05 1.961.373l2.539 3.627 1.358 2.263c.093.155.102.34-.077.37-.89.147-4.244-.479-5.281-.133-.695.232-1.4-.342-1.347-1.073.098-1.338.123-2.875-.153-3.427Z"/><path fill="#49E528" d="m36.506 56.036.465-1.924a.953.953 0 0 0-.409-1.039c-1.234-.772-3.268-1.809-4.624-1.694-1.563.133-4.023 2.593-5.121 3.878a.958.958 0 0 0-.111.16l-.561 1.019a1 1 0 0 0-.007.952l.938 1.76c.304.572 1.065.71 1.576.31 1.465-1.146 3.667-2.591 5.245-2.725l1.993-.169a.694.694 0 0 0 .616-.528ZM15.573 47.748c.179.071.376.142.58.211.726.245 1.393-.613 1.329-1.376-.044-.515-.091-1.663-.538-1.923l-3.828-2.223-2.37-1.162c-.162-.08-.348-.073-.362.107-.07.9.835 4.189.579 5.251-.173.713.459 1.366 1.183 1.252 1.324-.21 2.854-.365 3.427-.137ZM168.132 56.036l-.465-1.924c-.097-.4.06-.82.409-1.039 1.234-.772 3.268-1.809 4.624-1.694 1.563.133 4.023 2.593 5.121 3.878.043.05.08.103.111.16l.561 1.019a1 1 0 0 1 .007.952l-.938 1.76c-.304.572-1.065.71-1.576.31-1.465-1.146-3.667-2.591-5.245-2.725l-1.993-.169a.693.693 0 0 1-.616-.528ZM189.065 47.748c-.179.071-.376.142-.58.211-.726.245-1.393-.613-1.329-1.376.044-.515.091-1.663.538-1.923l3.828-2.223 2.369-1.162c.163-.08.349-.073.363.107.071.9-.835 4.189-.579 5.251.173.713-.459 1.366-1.183 1.252-1.324-.21-2.854-.365-3.427-.137Z"/><defs><filter id="a" width="43.514" height="6.368" x="82.533" y="116.682" color-interpolation-filters="sRGB" filterUnits="userSpaceOnUse"><feFlood flood-opacity="0" result="BackgroundImageFix"/><feBlend in="SourceGraphic" in2="BackgroundImageFix" result="shape"/><feColorMatrix in="SourceAlpha" result="hardAlpha" values="0 0 0 0 0 0 0 0 0 0 0 0 0 0 0 0 0 0 127 0"/><feOffset dx="15"/><feComposite in2="hardAlpha" k2="-1" k3="1" operator="arithmetic"/><feColorMatrix values="0 0 0 0 0.698039 0 0 0 0 0.678431 0 0 0 0 0.772549 0 0 0 1 0"/><feBlend in2="shape" result="effect1_innerShadow_1_337"/></filter><filter id="b" width="18.043" height="6.368" x="95.8" y="110.314" color-interpolation-filters="sRGB" filterUnits="userSpaceOnUse"><feFlood flood-opacity="0" result="BackgroundImageFix"/><feBlend in="SourceGraphic" in2="BackgroundImageFix" result="shape"/><feColorMatrix in="SourceAlpha" result="hardAlpha" values="0 0 0 0 0 0 0 0 0 0 0 0 0 0 0 0 0 0 127 0"/><feOffset dx="12"/><feComposite in2="hardAlpha" k2="-1" k3="1" operator="arithmetic"/><feColorMatrix values="0 0 0 0 0.564706 0 0 0 0 0.556863 0 0 0 0 0.65098 0 0 0 1 0"/><feBlend in2="shape" result="effect1_innerShadow_1_337"/></filter><filter id="c" width="81.191" height="60.495" x="63.96" y="49.818" color-interpolation-filters="sRGB" filterUnits="userSpaceOnUse"><feFlood flood-opacity="0" result="BackgroundImageFix"/><feBlend in="SourceGraphic" in2="BackgroundImageFix" result="shape"/><feColorMatrix in="SourceAlpha" result="hardAlpha" values="0 0 0 0 0 0 0 0 0 0 0 0 0 0 0 0 0 0 127 0"/><feOffset dx="15"/><feComposite in2="hardAlpha" k2="-1" k3="1" operator="arithmetic"/><feColorMatrix values="0 0 0 0 0.760784 0 0 0 0 0.780392 0 0 0 0 0.819608 0 0 0 1 0"/><feBlend in2="shape" result="effect1_innerShadow_1_337"/></filter><filter id="d" width="68.328" height="68.328" x="70.391" y="0" color-interpolation-filters="sRGB" filterUnits="userSpaceOnUse"><feFlood flood-opacity="0" result="BackgroundImageFix"/><feColorMatrix in="SourceAlpha" result="hardAlpha" values="0 0 0 0 0 0 0 0 0 0 0 0 0 0 0 0 0 0 127 0"/><feMorphology in="SourceAlpha" operator="dilate" radius="7" result="effect1_dropShadow_1_337"/><feOffset/><feGaussianBlur stdDeviation="10"/><feComposite in2="hardAlpha" operator="out"/><feColorMatrix values="0 0 0 0 0.489494 0 0 0 0 0.945486 0 0 0 0 0.393953 0 0 0 1 0"/><feBlend in2="BackgroundImageFix" result="effect1_dropShadow_1_337"/><feBlend in="SourceGraphic" in2="effect1_dropShadow_1_337" result="shape"/></filter><filter id="e" width="75.354" height="64.21" x="67" y="123" color-interpolation-filters="sRGB" filterUnits="userSpaceOnUse"><feFlood flood-opacity="0" result="BackgroundImageFix"/><feBlend in="SourceGraphic" in2="BackgroundImageFix" result="shape"/><feColorMatrix in="SourceAlpha" result="hardAlpha" values="0 0 0 0 0 0 0 0 0 0 0 0 0 0 0 0 0 0 127 0"/><feOffset dx="15"/><feComposite in2="hardAlpha" k2="-1" k3="1" operator="arithmetic"/><feColorMatrix values="0 0 0 0 0.611765 0 0 0 0 0.639216 0 0 0 0 0.682353 0 0 0 1 0"/><feBlend in2="shape" result="effect1_innerShadow_1_337"/></filter><filter id="f" width="14.328" height="31.84" x="80.368" y="187" color-interpolation-filters="sRGB" filterUnits="userSpaceOnUse"><feFlood flood-opacity="0" result="BackgroundImageFix"/><feBlend in="SourceGraphic" in2="BackgroundImageFix" result="shape"/><feColorMatrix in="SourceAlpha" result="hardAlpha" values="0 0 0 0 0 0 0 0 0 0 0 0 0 0 0 0 0 0 127 0"/><feOffset dx="10"/><feComposite in2="hardAlpha" k2="-1" k3="1" operator="arithmetic"/><feColorMatrix values="0 0 0 0 0.0680555 0 0 0 0 0.276704 0 0 0 0 0.466667 0 0 0 1 0"/><feBlend in2="shape" result="effect1_innerShadow_1_337"/></filter><filter id="g" width="14.328" height="31.84" x="115.391" y="187" color-interpolation-filters="sRGB" filterUnits="userSpaceOnUse"><feFlood flood-opacity="0" result="BackgroundImageFix"/><feBlend in="SourceGraphic" in2="BackgroundImageFix" result="shape"/><feColorMatrix in="SourceAlpha" result="hardAlpha" values="0 0 0 0 0 0 0 0 0 0 0 0 0 0 0 0 0 0 127 0"/><feOffset dx="10"/><feComposite in2="hardAlpha" k2="-1" k3="1" operator="arithmetic"/><feColorMatrix values="0 0 0 0 0.0680555 0 0 0 0 0.276704 0 0 0 0 0.466667 0 0 0 1 0"/><feBlend in2="shape" result="effect1_innerShadow_1_337"/></filter><filter id="h" width="20.696" height="23.009" x="77.184" y="218.84" color-interpolation-filters="sRGB" filterUnits="userSpaceOnUse"><feFlood flood-opacity="0" result="BackgroundImageFix"/><feBlend in="SourceGraphic" in2="BackgroundImageFix" result="shape"/><feColorMatrix in="SourceAlpha" result="hardAlpha" values="0 0 0 0 0 0 0 0 0 0 0 0 0 0 0 0 0 0 127 0"/><feOffset dx="10"/><feComposite in2="hardAlpha" k2="-1" k3="1" operator="arithmetic"/><feColorMatrix values="0 0 0 0 0.698039 0 0 0 0 0.678431 0 0 0 0 0.772549 0 0 0 1 0"/><feBlend in2="shape" result="effect1_innerShadow_1_337"/></filter><filter id="i" width="20.696" height="22.125" x="112.208" y="218.84" color-interpolation-filters="sRGB" filterUnits="userSpaceOnUse"><feFlood flood-opacity="0" result="BackgroundImageFix"/><feBlend in="SourceGraphic" in2="BackgroundImageFix" result="shape"/><feColorMatrix in="SourceAlpha" result="hardAlpha" values="0 0 0 0 0 0 0 0 0 0 0 0 0 0 0 0 0 0 127 0"/><feOffset dx="10"/><feComposite in2="hardAlpha" k2="-1" k3="1" operator="arithmetic"/><feColorMatrix values="0 0 0 0 0.698039 0 0 0 0 0.678431 0 0 0 0 0.772549 0 0 0 1 0"/><feBlend in2="shape" result="effect1_innerShadow_1_337"/></filter><filter id="j" width="27.064" height="13.797" x="74" y="237.943" color-interpolation-filters="sRGB" filterUnits="userSpaceOnUse"><feFlood flood-opacity="0" result="BackgroundImageFix"/><feBlend in="SourceGraphic" in2="BackgroundImageFix" result="shape"/><feColorMatrix in="SourceAlpha" result="hardAlpha" values="0 0 0 0 0 0 0 0 0 0 0 0 0 0 0 0 0 0 127 0"/><feOffset dx="10"/><feComposite in2="hardAlpha" k2="-1" k3="1" operator="arithmetic"/><feColorMatrix values="0 0 0 0 0.281458 0 0 0 0 0.555063 0 0 0 0 0.804167 0 0 0 1 0"/><feBlend in2="shape" result="effect1_innerShadow_1_337"/></filter><filter id="k" width="27.064" height="13.797" x="109.024" y="237.943" color-interpolation-filters="sRGB" filterUnits="userSpaceOnUse"><feFlood flood-opacity="0" result="BackgroundImageFix"/><feBlend in="SourceGraphic" in2="BackgroundImageFix" result="shape"/><feColorMatrix in="SourceAlpha" result="hardAlpha" values="0 0 0 0 0 0 0 0 0 0 0 0 0 0 0 0 0 0 127 0"/><feOffset dx="10"/><feComposite in2="hardAlpha" k2="-1" k3="1" operator="arithmetic"/><feColorMatrix values="0 0 0 0 0.281458 0 0 0 0 0.555063 0 0 0 0 0.804167 0 0 0 1 0"/><feBlend in2="shape" result="effect1_innerShadow_1_337"/></filter><filter id="l" width="12.854" height="13.312" x="26.351" y="96.383" color-interpolation-filters="sRGB" filterUnits="userSpaceOnUse"><feFlood flood-opacity="0" result="BackgroundImageFix"/><feBlend in="SourceGraphic" in2="BackgroundImageFix" result="shape"/><feColorMatrix in="SourceAlpha" result="hardAlpha" values="0 0 0 0 0 0 0 0 0 0 0 0 0 0 0 0 0 0 127 0"/><feOffset dx="5"/><feComposite in2="hardAlpha" k2="-1" k3="1" operator="arithmetic"/><feColorMatrix values="0 0 0 0 0.571493 0 0 0 0 0.602026 0 0 0 0 0.629167 0 0 0 1 0"/><feBlend in2="shape" result="effect1_innerShadow_1_337"/></filter><filter id="m" width="12.854" height="13.312" x="166" y="99" color-interpolation-filters="sRGB" filterUnits="userSpaceOnUse"><feFlood flood-opacity="0" result="BackgroundImageFix"/><feBlend in="SourceGraphic" in2="BackgroundImageFix" result="shape"/><feColorMatrix in="SourceAlpha" result="hardAlpha" values="0 0 0 0 0 0 0 0 0 0 0 0 0 0 0 0 0 0 127 0"/><feOffset dx="5"/><feComposite in2="hardAlpha" k2="-1" k3="1" operator="arithmetic"/><feColorMatrix values="0 0 0 0 0.571493 0 0 0 0 0.602026 0 0 0 0 0.629167 0 0 0 1 0"/><feBlend in2="shape" result="effect1_innerShadow_1_337"/></filter><filter id="n" width="27.195" height="30.204" x="33.523" y="104.365" color-interpolation-filters="sRGB" filterUnits="userSpaceOnUse"><feFlood flood-opacity="0" result="BackgroundImageFix"/><feBlend in="SourceGraphic" in2="BackgroundImageFix" result="shape"/><feColorMatrix in="SourceAlpha" result="hardAlpha" values="0 0 0 0 0 0 0 0 0 0 0 0 0 0 0 0 0 0 127 0"/><feOffset dx="5"/><feComposite in2="hardAlpha" k2="-1" k3="1" operator="arithmetic"/><feColorMatrix values="0 0 0 0 0.698039 0 0 0 0 0.678431 0 0 0 0 0.772549 0 0 0 1 0"/><feBlend in2="shape" result="effect1_innerShadow_1_337"/></filter><filter id="o" width="27.195" height="30.204" x="145.278" y="106.617" color-interpolation-filters="sRGB" filterUnits="userSpaceOnUse"><feFlood flood-opacity="0" result="BackgroundImageFix"/><feBlend in="SourceGraphic" in2="BackgroundImageFix" result="shape"/><feColorMatrix in="SourceAlpha" result="hardAlpha" values="0 0 0 0 0 0 0 0 0 0 0 0 0 0 0 0 0 0 127 0"/><feOffset dx="5"/><feComposite in2="hardAlpha" k2="-1" k3="1" operator="arithmetic"/><feColorMatrix values="0 0 0 0 0.698039 0 0 0 0 0.678431 0 0 0 0 0.772549 0 0 0 1 0"/><feBlend in2="shape" result="effect1_innerShadow_1_337"/></filter><filter id="p" width="16.981" height="21.226" x="50" y="128" color-interpolation-filters="sRGB" filterUnits="userSpaceOnUse"><feFlood flood-opacity="0" result="BackgroundImageFix"/><feBlend in="SourceGraphic" in2="BackgroundImageFix" result="shape"/><feColorMatrix in="SourceAlpha" result="hardAlpha" values="0 0 0 0 0 0 0 0 0 0 0 0 0 0 0 0 0 0 127 0"/><feOffset dx="12"/><feComposite in2="hardAlpha" k2="-1" k3="1" operator="arithmetic"/><feColorMatrix values="0 0 0 0 0.886275 0 0 0 0 0.894118 0 0 0 0 0.917647 0 0 0 1 0"/><feBlend in2="shape" result="effect1_innerShadow_1_337"/></filter><filter id="q" width="16.981" height="21.226" x="142" y="128" color-interpolation-filters="sRGB" filterUnits="userSpaceOnUse"><feFlood flood-opacity="0" result="BackgroundImageFix"/><feBlend in="SourceGraphic" in2="BackgroundImageFix" result="shape"/><feColorMatrix in="SourceAlpha" result="hardAlpha" values="0 0 0 0 0 0 0 0 0 0 0 0 0 0 0 0 0 0 127 0"/><feOffset dx="12"/><feComposite in2="hardAlpha" k2="-1" k3="1" operator="arithmetic"/><feColorMatrix values="0 0 0 0 0.886275 0 0 0 0 0.894118 0 0 0 0 0.917647 0 0 0 1 0"/><feBlend in2="shape" result="effect1_innerShadow_1_337"/></filter></defs></svg>