<svg xmlns="http://www.w3.org/2000/svg" width="288" height="288"><svg xmlns="http://www.w3.org/2000/svg" width="288" height="288" viewBox="0 0 24 24"><path fill="#3A68B8" d="M20 13H4c-.7 0-1.1.6-1 1.2l1.4 6.2c.2.9 1 1.6 2 1.6h11.1c1 0 1.8-.7 2-1.6l1.4-6.2c.2-.6-.3-1.2-.9-1.2zm-9 5c0 .5-.4 1-1 1s-1-.5-1-1v-2c0-.5.4-1 1-1s1 .5 1 1v2zm4 0c0 .5-.4 1-1 1s-1-.5-1-1v-2c0-.5.4-1 1-1s1 .5 1 1v2zm6-10h-2.2l-1.9-4.8c-.4-1-1.6-1.5-2.6-1.1-1 .4-1.5 1.6-1.1 2.6L14.5 8h-5l1.3-3.3c.4-1-.1-2.2-1.1-2.6-1-.4-2.2.1-2.6 1.1L5.2 8H3c-1.1 0-2 .9-2 2v1c0 .6.4 1 1 1h20c.6 0 1-.4 1-1v-1c0-1.1-.9-2-2-2z" class="color000 svgShape"/></svg></svg>