<svg xmlns="http://www.w3.org/2000/svg" width="110" height="255" fill="none"><g filter="url(#a)"><path fill="#C5CCD3" d="M32.533 124.682a5 5 0 0 1 5-5h33.514a5 5 0 0 1 5 5v1.368H32.533v-1.368Z"/></g><g filter="url(#b)"><path fill="#9EA7AF" d="M45.8 113.314h18.043v6.368H45.8z"/></g><g filter="url(#c)"><rect width="81.191" height="60.495" x="13.96" y="52.818" fill="#C5CCD3" rx="7"/></g><rect width="61.557" height="28.656" x="24.043" y="68.738" fill="#135693" rx="14.328"/><circle cx="35.982" cy="83.331" r="5.572" fill="#6BC1DD"/><circle cx="72.598" cy="83.331" r="5.572" fill="#6BC1DD"/><path fill="#9EA7AF" d="M6 70.962a7 7 0 0 1 7-7h.96v37.677H13a7 7 0 0 1-7-7V70.962ZM95.15 63.962h.96a7 7 0 0 1 7.001 7V94.64a7 7 0 0 1-7 7h-.96V63.962Z"/><path fill="#135693" d="M52.167 43.797h4.245v9.021h-4.245z"/><g filter="url(#d)"><circle cx="54.555" cy="37.164" r="7.164" fill="#FF0202"/></g><g filter="url(#e)"><path fill="#135693" d="M31.368 190h14.328v31.84H31.368V190Z"/></g><g filter="url(#f)"><path fill="#135693" d="M66.391 190h14.328v31.84H66.391z"/></g><g filter="url(#g)"><path fill="#C5CCD3" fill-rule="evenodd" d="M33.184 221.84a5 5 0 0 0-5 5v8.008c0 5.523 4.477 10 10 10h.696c5.523 0 10-4.477 10-10v-8.008a5 5 0 0 0-5-5H33.184Z" clip-rule="evenodd"/></g><g filter="url(#h)"><path fill="#C5CCD3" fill-rule="evenodd" d="M68.207 221.84a5 5 0 0 0-5 5v8.008c0 4.056 2.415 7.547 5.884 9.117a14.345 14.345 0 0 1 4.464-.709c1.554 0 3.053.248 4.465.709a10.003 10.003 0 0 0 5.883-9.117v-8.008a5 5 0 0 0-5-5H68.207Z" clip-rule="evenodd"/></g><g filter="url(#i)"><path fill="#6ABDDB" fill-rule="evenodd" d="M52.061 254.741c.002-.089.003-.177.003-.266 0-7.473-6.059-13.532-13.532-13.532-7.474 0-13.532 6.059-13.532 13.532 0 .089 0 .177.003.266H52.06Z" clip-rule="evenodd"/></g><g filter="url(#j)"><path fill="#6ABDDB" fill-rule="evenodd" d="m87.085 254.741.002-.266c0-7.473-6.058-13.532-13.532-13.532-7.473 0-13.531 6.059-13.531 13.532 0 .089 0 .177.002.266h27.059Z" clip-rule="evenodd"/></g><g filter="url(#k)"><rect width="75.354" height="64.21" x="17" y="126" fill="#9EA7AF" rx="7"/></g><rect width="48.821" height="32.901" x="30.267" y="140.858" fill="#135693" rx="5"/><rect width="10.613" height="4.245" x="35.042" y="144.042" fill="#C5CCD3" rx="2.123"/><rect width="38.738" height="3.184" x="35.042" y="166.861" fill="#5DC647" rx="1.592"/><rect width="9.552" height="4.245" x="64.229" y="156.248" fill="#E6E9ED" rx="2.123"/><rect width="7.96" height="4.245" x="35.042" y="149.349" fill="#C5CCD3" rx="2.123"/><rect width="10.613" height="4.245" x="35.042" y="154.656" fill="#C5CCD3" rx="2.123"/><rect width="6.899" height="4.245" x="35.042" y="159.962" fill="#C5CCD3" rx="2.123"/><rect width="10.082" height="6.368" x="49.901" y="144.042" fill="#6BC1DD" rx="2"/><circle cx="69.27" cy="148.553" r="4.511" fill="#5DC647"/><rect width="9.552" height="9.552" x="49.901" y="154.656" fill="#FFC502" rx="2"/><g filter="url(#l)"><path fill="#D8E7F5" d="m87.14 104.77-6.456 3.02-6.541-13.99 6.455-3.018z"/></g><g filter="url(#m)"><path fill="#D8E7F5" d="m29.799 107.798-6.472-2.983 5.286-11.468 6.472 2.984z"/></g><g filter="url(#n)"><path fill="#E8EEF3" d="m101.622 133.341-8.3 3.881-13.303-28.451a4.582 4.582 0 0 1 8.3-3.881l13.303 28.451Z"/></g><g filter="url(#o)"><path fill="#E8EEF3" d="M17.32 137.299 9 133.463l13.148-28.523a4.58 4.58 0 1 1 8.32 3.836l-13.147 28.523Z"/></g><rect width="13.581" height="21.177" x="33.716" y="73.652" fill="#E8EEF3" rx="6.791" transform="rotate(24.3 33.716 73.652)"/><rect width="13.581" height="21.177" x="85.079" y="93.31" fill="#E8EEF3" rx="6.791" transform="rotate(155.759 85.079 93.31)"/><path fill="#E6E9ED" d="M92.58 131.167h6.368c5.862 0 10.613 4.752 10.613 10.614 0 5.861-4.751 10.613-10.613 10.613H92.58v-21.227Z"/><g filter="url(#p)"><path fill="#E6E9ED" d="M17.226 152.394H10.86c-5.862 0-10.614-4.752-10.614-10.613 0-5.862 4.752-10.614 10.614-10.614h6.367v21.227Z"/></g><defs><filter id="a" width="43.514" height="6.368" x="32.533" y="119.682" color-interpolation-filters="sRGB" filterUnits="userSpaceOnUse"><feFlood flood-opacity="0" result="BackgroundImageFix"/><feBlend in="SourceGraphic" in2="BackgroundImageFix" result="shape"/><feColorMatrix in="SourceAlpha" result="hardAlpha" values="0 0 0 0 0 0 0 0 0 0 0 0 0 0 0 0 0 0 127 0"/><feOffset dx="15"/><feComposite in2="hardAlpha" k2="-1" k3="1" operator="arithmetic"/><feColorMatrix values="0 0 0 0 0.698039 0 0 0 0 0.678431 0 0 0 0 0.772549 0 0 0 1 0"/><feBlend in2="shape" result="effect1_innerShadow_1_300"/></filter><filter id="b" width="18.043" height="6.368" x="45.8" y="113.314" color-interpolation-filters="sRGB" filterUnits="userSpaceOnUse"><feFlood flood-opacity="0" result="BackgroundImageFix"/><feBlend in="SourceGraphic" in2="BackgroundImageFix" result="shape"/><feColorMatrix in="SourceAlpha" result="hardAlpha" values="0 0 0 0 0 0 0 0 0 0 0 0 0 0 0 0 0 0 127 0"/><feOffset dx="12"/><feComposite in2="hardAlpha" k2="-1" k3="1" operator="arithmetic"/><feColorMatrix values="0 0 0 0 0.564706 0 0 0 0 0.556863 0 0 0 0 0.65098 0 0 0 1 0"/><feBlend in2="shape" result="effect1_innerShadow_1_300"/></filter><filter id="c" width="81.191" height="60.495" x="13.96" y="52.818" color-interpolation-filters="sRGB" filterUnits="userSpaceOnUse"><feFlood flood-opacity="0" result="BackgroundImageFix"/><feBlend in="SourceGraphic" in2="BackgroundImageFix" result="shape"/><feColorMatrix in="SourceAlpha" result="hardAlpha" values="0 0 0 0 0 0 0 0 0 0 0 0 0 0 0 0 0 0 127 0"/><feOffset dx="15"/><feComposite in2="hardAlpha" k2="-1" k3="1" operator="arithmetic"/><feColorMatrix values="0 0 0 0 0.760784 0 0 0 0 0.780392 0 0 0 0 0.819608 0 0 0 1 0"/><feBlend in2="shape" result="effect1_innerShadow_1_300"/></filter><filter id="d" width="74.328" height="74.328" x="17.392" y="0" color-interpolation-filters="sRGB" filterUnits="userSpaceOnUse"><feFlood flood-opacity="0" result="BackgroundImageFix"/><feColorMatrix in="SourceAlpha" result="hardAlpha" values="0 0 0 0 0 0 0 0 0 0 0 0 0 0 0 0 0 0 127 0"/><feMorphology in="SourceAlpha" operator="dilate" radius="10" result="effect1_dropShadow_1_300"/><feOffset/><feGaussianBlur stdDeviation="10"/><feComposite in2="hardAlpha" operator="out"/><feColorMatrix values="0 0 0 0 1 0 0 0 0 0 0 0 0 0 0 0 0 0 0.6 0"/><feBlend in2="BackgroundImageFix" result="effect1_dropShadow_1_300"/><feBlend in="SourceGraphic" in2="effect1_dropShadow_1_300" result="shape"/></filter><filter id="e" width="14.328" height="31.84" x="31.368" y="190" color-interpolation-filters="sRGB" filterUnits="userSpaceOnUse"><feFlood flood-opacity="0" result="BackgroundImageFix"/><feBlend in="SourceGraphic" in2="BackgroundImageFix" result="shape"/><feColorMatrix in="SourceAlpha" result="hardAlpha" values="0 0 0 0 0 0 0 0 0 0 0 0 0 0 0 0 0 0 127 0"/><feOffset dx="10"/><feComposite in2="hardAlpha" k2="-1" k3="1" operator="arithmetic"/><feColorMatrix values="0 0 0 0 0.0680555 0 0 0 0 0.276704 0 0 0 0 0.466667 0 0 0 1 0"/><feBlend in2="shape" result="effect1_innerShadow_1_300"/></filter><filter id="f" width="14.328" height="31.84" x="66.391" y="190" color-interpolation-filters="sRGB" filterUnits="userSpaceOnUse"><feFlood flood-opacity="0" result="BackgroundImageFix"/><feBlend in="SourceGraphic" in2="BackgroundImageFix" result="shape"/><feColorMatrix in="SourceAlpha" result="hardAlpha" values="0 0 0 0 0 0 0 0 0 0 0 0 0 0 0 0 0 0 127 0"/><feOffset dx="10"/><feComposite in2="hardAlpha" k2="-1" k3="1" operator="arithmetic"/><feColorMatrix values="0 0 0 0 0.0680555 0 0 0 0 0.276704 0 0 0 0 0.466667 0 0 0 1 0"/><feBlend in2="shape" result="effect1_innerShadow_1_300"/></filter><filter id="g" width="20.696" height="23.009" x="28.184" y="221.84" color-interpolation-filters="sRGB" filterUnits="userSpaceOnUse"><feFlood flood-opacity="0" result="BackgroundImageFix"/><feBlend in="SourceGraphic" in2="BackgroundImageFix" result="shape"/><feColorMatrix in="SourceAlpha" result="hardAlpha" values="0 0 0 0 0 0 0 0 0 0 0 0 0 0 0 0 0 0 127 0"/><feOffset dx="10"/><feComposite in2="hardAlpha" k2="-1" k3="1" operator="arithmetic"/><feColorMatrix values="0 0 0 0 0.698039 0 0 0 0 0.678431 0 0 0 0 0.772549 0 0 0 1 0"/><feBlend in2="shape" result="effect1_innerShadow_1_300"/></filter><filter id="h" width="20.696" height="22.125" x="63.208" y="221.84" color-interpolation-filters="sRGB" filterUnits="userSpaceOnUse"><feFlood flood-opacity="0" result="BackgroundImageFix"/><feBlend in="SourceGraphic" in2="BackgroundImageFix" result="shape"/><feColorMatrix in="SourceAlpha" result="hardAlpha" values="0 0 0 0 0 0 0 0 0 0 0 0 0 0 0 0 0 0 127 0"/><feOffset dx="10"/><feComposite in2="hardAlpha" k2="-1" k3="1" operator="arithmetic"/><feColorMatrix values="0 0 0 0 0.698039 0 0 0 0 0.678431 0 0 0 0 0.772549 0 0 0 1 0"/><feBlend in2="shape" result="effect1_innerShadow_1_300"/></filter><filter id="i" width="27.064" height="13.797" x="25" y="240.943" color-interpolation-filters="sRGB" filterUnits="userSpaceOnUse"><feFlood flood-opacity="0" result="BackgroundImageFix"/><feBlend in="SourceGraphic" in2="BackgroundImageFix" result="shape"/><feColorMatrix in="SourceAlpha" result="hardAlpha" values="0 0 0 0 0 0 0 0 0 0 0 0 0 0 0 0 0 0 127 0"/><feOffset dx="10"/><feComposite in2="hardAlpha" k2="-1" k3="1" operator="arithmetic"/><feColorMatrix values="0 0 0 0 0.281458 0 0 0 0 0.555063 0 0 0 0 0.804167 0 0 0 1 0"/><feBlend in2="shape" result="effect1_innerShadow_1_300"/></filter><filter id="j" width="27.064" height="13.797" x="60.024" y="240.943" color-interpolation-filters="sRGB" filterUnits="userSpaceOnUse"><feFlood flood-opacity="0" result="BackgroundImageFix"/><feBlend in="SourceGraphic" in2="BackgroundImageFix" result="shape"/><feColorMatrix in="SourceAlpha" result="hardAlpha" values="0 0 0 0 0 0 0 0 0 0 0 0 0 0 0 0 0 0 127 0"/><feOffset dx="10"/><feComposite in2="hardAlpha" k2="-1" k3="1" operator="arithmetic"/><feColorMatrix values="0 0 0 0 0.281458 0 0 0 0 0.555063 0 0 0 0 0.804167 0 0 0 1 0"/><feBlend in2="shape" result="effect1_innerShadow_1_300"/></filter><filter id="k" width="75.354" height="64.21" x="17" y="126" color-interpolation-filters="sRGB" filterUnits="userSpaceOnUse"><feFlood flood-opacity="0" result="BackgroundImageFix"/><feBlend in="SourceGraphic" in2="BackgroundImageFix" result="shape"/><feColorMatrix in="SourceAlpha" result="hardAlpha" values="0 0 0 0 0 0 0 0 0 0 0 0 0 0 0 0 0 0 127 0"/><feOffset dx="15"/><feComposite in2="hardAlpha" k2="-1" k3="1" operator="arithmetic"/><feColorMatrix values="0 0 0 0 0.611765 0 0 0 0 0.639216 0 0 0 0 0.682353 0 0 0 1 0"/><feBlend in2="shape" result="effect1_innerShadow_1_300"/></filter><filter id="l" width="12.996" height="17.007" x="74.143" y="90.782" color-interpolation-filters="sRGB" filterUnits="userSpaceOnUse"><feFlood flood-opacity="0" result="BackgroundImageFix"/><feBlend in="SourceGraphic" in2="BackgroundImageFix" result="shape"/><feColorMatrix in="SourceAlpha" result="hardAlpha" values="0 0 0 0 0 0 0 0 0 0 0 0 0 0 0 0 0 0 127 0"/><feOffset dx="5"/><feComposite in2="hardAlpha" k2="-1" k3="1" operator="arithmetic"/><feColorMatrix values="0 0 0 0 0.597379 0 0 0 0 0.614024 0 0 0 0 0.62882 0 0 0 1 0"/><feBlend in2="shape" result="effect1_innerShadow_1_300"/></filter><filter id="m" width="11.758" height="14.45" x="23.327" y="93.348" color-interpolation-filters="sRGB" filterUnits="userSpaceOnUse"><feFlood flood-opacity="0" result="BackgroundImageFix"/><feBlend in="SourceGraphic" in2="BackgroundImageFix" result="shape"/><feColorMatrix in="SourceAlpha" result="hardAlpha" values="0 0 0 0 0 0 0 0 0 0 0 0 0 0 0 0 0 0 127 0"/><feOffset dx="5"/><feComposite in2="hardAlpha" k2="-1" k3="1" operator="arithmetic"/><feColorMatrix values="0 0 0 0 0.597379 0 0 0 0 0.614024 0 0 0 0 0.62882 0 0 0 1 0"/><feBlend in2="shape" result="effect1_innerShadow_1_300"/></filter><filter id="n" width="22.035" height="34.974" x="79.586" y="102.248" color-interpolation-filters="sRGB" filterUnits="userSpaceOnUse"><feFlood flood-opacity="0" result="BackgroundImageFix"/><feBlend in="SourceGraphic" in2="BackgroundImageFix" result="shape"/><feColorMatrix in="SourceAlpha" result="hardAlpha" values="0 0 0 0 0 0 0 0 0 0 0 0 0 0 0 0 0 0 127 0"/><feOffset dx="5"/><feComposite in2="hardAlpha" k2="-1" k3="1" operator="arithmetic"/><feColorMatrix values="0 0 0 0 0.698039 0 0 0 0 0.678431 0 0 0 0 0.772549 0 0 0 1 0"/><feBlend in2="shape" result="effect1_innerShadow_1_300"/></filter><filter id="o" width="21.891" height="35.023" x="9" y="102.276" color-interpolation-filters="sRGB" filterUnits="userSpaceOnUse"><feFlood flood-opacity="0" result="BackgroundImageFix"/><feBlend in="SourceGraphic" in2="BackgroundImageFix" result="shape"/><feColorMatrix in="SourceAlpha" result="hardAlpha" values="0 0 0 0 0 0 0 0 0 0 0 0 0 0 0 0 0 0 127 0"/><feOffset dx="5"/><feComposite in2="hardAlpha" k2="-1" k3="1" operator="arithmetic"/><feColorMatrix values="0 0 0 0 0.698039 0 0 0 0 0.678431 0 0 0 0 0.772549 0 0 0 1 0"/><feBlend in2="shape" result="effect1_innerShadow_1_300"/></filter><filter id="p" width="16.981" height="21.226" x=".245" y="131.167" color-interpolation-filters="sRGB" filterUnits="userSpaceOnUse"><feFlood flood-opacity="0" result="BackgroundImageFix"/><feBlend in="SourceGraphic" in2="BackgroundImageFix" result="shape"/><feColorMatrix in="SourceAlpha" result="hardAlpha" values="0 0 0 0 0 0 0 0 0 0 0 0 0 0 0 0 0 0 127 0"/><feOffset dx="12"/><feComposite in2="hardAlpha" k2="-1" k3="1" operator="arithmetic"/><feColorMatrix values="0 0 0 0 0.886275 0 0 0 0 0.894118 0 0 0 0 0.917647 0 0 0 1 0"/><feBlend in2="shape" result="effect1_innerShadow_1_300"/></filter></defs></svg>